ExternalForces									
version=1									
nRows=200									
nColumns=10									
inDegrees=yes									
endheader									
time	chair_force_vx	chair_force_vy	chair_force_vz	chair_force_px	chair_force_py	chair_force_pz	chair_torque_x	chair_torque_y	chair_torque_z
0	-16.18394126	264.7660241	0	0	0	0	0	0	0
0.00640504	-12.20949137	258.2122514	0	0	0	0	0	0	0
0.00733462	-16.04275379	265.0750317	0	0	0	0	0	0	0
0.00868302	-15.45331728	264.2850971	0	0	0	0	0	0	0
0.01459128	-11.75714679	259.2935959	0	0	0	0	0	0	0
0.01547509	-12.86816266	261.5293118	0	0	0	0	0	0	0
0.01718817	-12.76068498	261.9303647	0	0	0	0	0	0	0
0.02530902	-10.40026225	261.028835	0	0	0	0	0	0	0
0.03342988	-6.31949023	257.7151157	0	0	0	0	0	0	0
0.04494348	-1.08265718	254.730919	0	0	0	0	0	0	0
0.06109467	7.35119076	250.2291668	0	0	0	0	0	0	0
0.06364734	8.18383141	249.5144816	0	0	0	0	0	0	0
0.07531897	4.49928044	245.5924508	0	0	0	0	0	0	0
0.07648613	15.27835625	246.0589138	0	0	0	0	0	0	0
0.07765329	15.4551921	245.7074311	0	0	0	0	0	0	0
0.08348911	17.74450376	244.0590949	0	0	0	0	0	0	0
0.09353467	27.21110298	241.6657406	0	0	0	0	0	0	0
0.09470381	25.07968913	241.1322553	0	0	0	0	0	0	0
0.09798108	25.29823348	240.1261314	0	0	0	0	0	0	0
0.10270179	27.46526757	238.9820499	0	0	0	0	0	0	0
0.1091696	31.64207242	238.9659105	0	0	0	0	0	0	0
0.11947588	38.43196666	241.33361	0	0	0	0	0	0	0
0.13336884	45.24560134	246.7729905	0	0	0	0	0	0	0
0.1350997	47.67640628	247.6827835	0	0	0	0	0	0	0
0.13956473	50.914991	249.8276816	0	0	0	0	0	0	0
0.1501582	57.93481072	255.0317457	0	0	0	0	0	0	0
0.15361569	59.66706758	256.7050505	0	0	0	0	0	0	0
0.16522701	64.00860042	262.1956842	0	0	0	0	0	0	0
0.16639887	66.80944279	262.953596	0	0	0	0	0	0	0
0.16847132	68.37774202	263.996677	0	0	0	0	0	0	0
0.17883356	79.9605912	269.5013217	0	0	0	0	0	0	0
0.17986979	77.81419165	269.7562692	0	0	0	0	0	0	0
0.18176771	77.14392905	270.5087355	0	0	0	0	0	0	0
0.18666174	79.16797724	272.7671399	0	0	0	0	0	0	0
0.19585945	84.40181676	277.0786961	0	0	0	0	0	0	0
0.20437723	88.96437764	280.8841	0	0	0	0	0	0	0
0.212895	93.37951809	283.7174859	0	0	0	0	0	0	0
0.22135152	96.14957536	285.4357091	0	0	0	0	0	0	0
0.22348772	97.78760402	285.8344747	0	0	0	0	0	0	0
0.23042349	101.8100257	286.7721281	0	0	0	0	0	0	0
0.23558182	103.1891212	287.1373747	0	0	0	0	0	0	0
0.24492136	107.6668229	287.6503562	0	0	0	0	0	0	0
0.24725568	108.1147103	287.6694315	0	0	0	0	0	0	0
0.25615434	108.5877534	287.4800934	0	0	0	0	0	0	0
0.2571144	111.1630422	287.6440792	0	0	0	0	0	0	0
0.25884758	112.0868658	287.6388999	0	0	0	0	0	0	0
0.26751349	120.3369826	287.7392441	0	0	0	0	0	0	0
0.26869279	117.6240779	287.4442034	0	0	0	0	0	0	0
0.27169638	117.0146567	287.1527373	0	0	0	0	0	0	0
0.27970601	108.7880675	285.7933785	0	0	0	0	0	0	0
0.28109929	122.9719035	286.6291108	0	0	0	0	0	0	0
0.28249257	121.3428651	286.3513589	0	0	0	0	0	0	0
0.28674445	121.3664966	285.8198763	0	0	0	0	0	0	0
0.29501058	121.3655514	284.6329876	0	0	0	0	0	0	0
0.29605566	123.8335785	284.6221139	0	0	0	0	0	0	0
0.29782435	124.447325	284.3723968	0	0	0	0	0	0	0
0.30313523	126.0912872	283.4558716	0	0	0	0	0	0	0
0.30986726	123.6037258	280.9005385	0	0	0	0	0	0	0
0.31064318	127.1681935	280.7139958	0	0	0	0	0	0	0
0.31210611	128.0839707	279.9971261	0	0	0	0	0	0	0
0.31628585	129.6344402	277.5360213	0	0	0	0	0	0	0
0.32178824	128.9190597	273.4845185	0	0	0	0	0	0	0
0.32257024	130.5020816	272.9333107	0	0	0	0	0	0	0
0.32454356	131.3883112	271.3505191	0	0	0	0	0	0	0
0.3295651	132.484945	266.9882165	0	0	0	0	0	0	0
0.33354787	134.0992343	263.3209732	0	0	0	0	0	0	0
0.33841679	133.3318	258.5206403	0	0	0	0	0	0	0
0.34007908	135.0153058	256.8997253	0	0	0	0	0	0	0
0.34295917	135.2466474	253.9590587	0	0	0	0	0	0	0
0.34955752	142.6049466	247.1889832	0	0	0	0	0	0	0
0.35058524	138.8220928	246.0005455	0	0	0	0	0	0	0
0.35314928	137.282904	243.200196	0	0	0	0	0	0	0
0.35770317	135.2338655	238.195999	0	0	0	0	0	0	0
0.35902267	138.1446627	236.7808501	0	0	0	0	0	0	0
0.36086693	137.8418271	234.7325244	0	0	0	0	0	0	0
0.36599325	133.9097322	228.9736323	0	0	0	0	0	0	0
0.36696067	138.5774843	227.9065017	0	0	0	0	0	0	0
0.36824999	138.4811911	226.447009	0	0	0	0	0	0	0
0.37340645	136.3615297	220.5722561	0	0	0	0	0	0	0
0.37449358	139.2021587	219.315575	0	0	0	0	0	0	0
0.37606072	139.0224574	217.5109916	0	0	0	0	0	0	0
0.38127125	136.7403822	211.492118	0	0	0	0	0	0	0
0.38190491	138.7604661	210.7282975	0	0	0	0	0	0	0
0.38352247	139.5539242	208.825949	0	0	0	0	0	0	0
0.38665158	139.3626828	205.1506014	0	0	0	0	0	0	0
0.3907978	146.0048718	200.0832155	0	0	0	0	0	0	0
0.39180817	141.8837224	198.974153	0	0	0	0	0	0	0
0.3945272	140.1135673	195.7684047	0	0	0	0	0	0	0
0.39837827	136.7962631	191.250464	0	0	0	0	0	0	0
0.39945188	140.5396018	189.8262532	0	0	0	0	0	0	0
0.40085456	139.9772489	188.0823496	0	0	0	0	0	0	0
0.40307521	138.9015507	184.6998939	0	0	0	0	0	0	0
0.40931014	132.7241839	172.9330307	0	0	0	0	0	0	0
0.41778637	120.5342792	154.7121843	0	0	0	0	0	0	0
0.4262626	106.6718839	135.7271376	0	0	0	0	0	0	0
0.44280118	78.75517315	99.3523398	0	0	0	0	0	0	0
0.46504198	43.69251202	54.90840112	0	0	0	0	0	0	0
0.48955874	10.05306416	13.0593335	0	0	0	0	0	0	0
0.50340451	0	0	0	0	0	0	0	0	0
0.50889239	0	0	0	0	0	0	0	0	0
0.52895692	0	0	0	0	0	0	0	0	0
0.54902146	0	0	0	0	0	0	0	0	0
0.55660519	0	0	0	0	0	0	0	0	0
0.56963458	0	0	0	0	0	0	0	0	0
0.58422557	0	0	0	0	0	0	0	0	0
0.59268095	0	0	0	0	0	0	0	0	0
0.60288841	0	0	0	0	0	0	0	0	0
0.61071895	0	0	0	0	0	0	0	0	0
0.61854949	0	0	0	0	0	0	0	0	0
0.62855668	0	0	0	0	0	0	0	0	0
0.63443333	0	0	0	0	0	0	0	0	0
0.64030998	0	0	0	0	0	0	0	0	0
0.65048948	0	0	0	0	0	0	0	0	0
0.66097065	0	0	0	0	0	0	0	0	0
0.66797053	0	0	0	0	0	0	0	0	0
0.67497041	0	0	0	0	0	0	0	0	0
0.6819703	0	0	0	0	0	0	0	0	0
0.68897018	0	0	0	0	0	0	0	0	0
0.69597006	0	0	0	0	0	0	0	0	0
0.70135672	0	0	0	0	0	0	0	0	0
0.70674337	0	0	0	0	0	0	0	0	0
0.71856542	0	0	0	0	0	0	0	0	0
0.72506227	0	0	0	0	0	0	0	0	0
0.73413732	0	0	0	0	0	0	0	0	0
0.73705774	0	0	0	0	0	0	0	0	0
0.74311847	0	0	0	0	0	0	0	0	0
0.75244893	0	0	0	0	0	0	0	0	0
0.75814184	0	0	0	0	0	0	0	0	0
0.76383476	0	0	0	0	0	0	0	0	0
0.77128068	0	0	0	0	0	0	0	0	0
0.78007292	0	0	0	0	0	0	0	0	0
0.78638791	0	0	0	0	0	0	0	0	0
0.79270291	0	0	0	0	0	0	0	0	0
0.80051663	0	0	0	0	0	0	0	0	0
0.8116097	0	0	0	0	0	0	0	0	0
0.81768754	0	0	0	0	0	0	0	0	0
0.82510514	0	0	0	0	0	0	0	0	0
0.8393567	0	0	0	0	0	0	0	0	0
0.84757299	0	0	0	0	0	0	0	0	0
0.85578928	0	0	0	0	0	0	0	0	0
0.86745566	0	0	0	0	0	0	0	0	0
0.87797448	0	0	0	0	0	0	0	0	0
0.88849331	0	0	0	0	0	0	0	0	0
0.89792909	0	0	0	0	0	0	0	0	0
0.90736486	0	0	0	0	0	0	0	0	0
0.91680064	0	0	0	0	0	0	0	0	0
0.92471968	0	0	0	0	0	0	0	0	0
0.93263873	0	0	0	0	0	0	0	0	0
0.94358296	0	0	0	0	0	0	0	0	0
0.95131154	0	0	0	0	0	0	0	0	0
0.95904012	0	0	0	0	0	0	0	0	0
0.9698508	0	0	0	0	0	0	0	0	0
0.98066148	0	0	0	0	0	0	0	0	0
0.9860365	0	0	0	0	0	0	0	0	0
0.99812611	0	0	0	0	0	0	0	0	0
1.00645275	0	0	0	0	0	0	0	0	0
1.01477939	0	0	0	0	0	0	0	0	0
1.02310603	0	0	0	0	0	0	0	0	0
1.03441806	0	0	0	0	0	0	0	0	0
1.04160505	0	0	0	0	0	0	0	0	0
1.04879204	0	0	0	0	0	0	0	0	0
1.05831528	0	0	0	0	0	0	0	0	0
1.06595101	0	0	0	0	0	0	0	0	0
1.07358675	0	0	0	0	0	0	0	0	0
1.08326091	0	0	0	0	0	0	0	0	0
1.0906105	0	0	0	0	0	0	0	0	0
1.09917239	0	0	0	0	0	0	0	0	0
1.10581197	0	0	0	0	0	0	0	0	0
1.11245156	0	0	0	0	0	0	0	0	0
1.12312167	0	0	0	0	0	0	0	0	0
1.13767218	0	0	0	0	0	0	0	0	0
1.14067745	0	0	0	0	0	0	0	0	0
1.14807158	0	0	0	0	0	0	0	0	0
1.17046535	0	0	0	0	0	0	0	0	0
1.18287301	0	0	0	0	0	0	0	0	0
1.19528067	0	0	0	0	0	0	0	0	0
1.20915565	0	0	0	0	0	0	0	0	0
1.21808124	0	0	0	0	0	0	0	0	0
1.22700683	0	0	0	0	0	0	0	0	0
1.23593243	0	0	0	0	0	0	0	0	0
1.25333906	0	0	0	0	0	0	0	0	0
1.27489491	0	0	0	0	0	0	0	0	0
1.29645076	0	0	0	0	0	0	0	0	0
1.30390842	0	0	0	0	0	0	0	0	0
1.31136608	0	0	0	0	0	0	0	0	0
1.32763617	0	0	0	0	0	0	0	0	0
1.34390626	0	0	0	0	0	0	0	0	0
1.35824242	0	0	0	0	0	0	0	0	0
1.37257858	0	0	0	0	0	0	0	0	0
1.38784675	0	0	0	0	0	0	0	0	0
1.39949893	0	0	0	0	0	0	0	0	0
1.4082385	0	0	0	0	0	0	0	0	0
1.41697807	0	0	0	0	0	0	0	0	0
1.42858074	0	0	0	0	0	0	0	0	0
1.44018341	0	0	0	0	0	0	0	0	0
1.44522005	0	0	0	0	0	0	0	0	0
1.44999392	0	0	0	0	0	0	0	0	0
1.45607022	0	0	0	0	0	0	0	0	0
1.46408786	0	0	0	0	0	0	0	0	0
1.46621398	0	0	0	0	0	0	0	0	0
